<?xml version="1.0" standalone="no"?>
<!DOCTYPE svg PUBLIC "-//W3C//DTD SVG 20010904//EN"
 "http://www.w3.org/TR/2001/REC-SVG-20010904/DTD/svg10.dtd">
<svg version="1.0" xmlns="http://www.w3.org/2000/svg"
 width="123.000000pt" height="53.000000pt" viewBox="0 0 123.000000 53.000000"
 preserveAspectRatio="xMidYMid meet">

<g transform="translate(0.000000,53.000000) scale(0.100000,-0.100000)"
fill="#000000" stroke="none">
<path d="M10 270 l0 -250 598 2 597 3 0 245 0 245 -597 3 -598 2 0 -250z
m1190 0 l0 -240 -590 0 -590 0 0 240 0 240 590 0 590 0 0 -240z"/>
<path d="M277 405 c-8 -18 11 -31 25 -17 11 11 3 32 -12 32 -4 0 -10 -7 -13
-15z"/>
<path d="M147 393 c-8 -14 -4 -143 5 -143 4 0 8 11 8 24 0 20 6 24 39 30 43 7
58 29 47 72 -6 21 -12 24 -51 24 -24 0 -46 -3 -48 -7z m88 -38 c0 -27 -3 -30
-37 -33 -38 -3 -38 -3 -38 33 0 36 0 36 38 33 34 -3 37 -6 37 -33z"/>
<path d="M483 325 c0 -44 2 -61 4 -37 2 23 2 59 0 80 -2 20 -4 1 -4 -43z"/>
<path d="M607 382 c-26 -29 -23 -107 5 -126 12 -9 32 -16 43 -16 23 0 65 26
65 41 0 5 -9 0 -21 -12 -16 -16 -28 -20 -52 -15 -17 4 -35 12 -39 19 -13 20
-9 87 6 103 20 19 65 18 90 -3 21 -18 21 -18 2 5 -24 27 -76 30 -99 4z"/>
<path d="M1050 376 c0 -20 -4 -24 -17 -19 -12 5 -11 1 5 -15 25 -25 27 -49 8
-74 -20 -27 -54 -22 -68 8 -10 21 -9 31 4 55 10 16 13 29 8 29 -13 0 -30 -35
-30 -63 0 -38 32 -61 75 -53 l35 7 0 69 c0 38 -4 72 -10 75 -6 3 -10 -5 -10
-19z"/>
<path d="M405 346 c13 -9 19 -26 19 -55 1 -22 4 -41 9 -41 11 0 9 68 -3 91 -6
10 -18 19 -27 19 -15 0 -14 -2 2 -14z"/>
<path d="M765 351 c-3 -6 8 -8 28 -4 26 4 36 1 40 -11 7 -17 3 -20 -46 -30
-15 -4 -30 -13 -34 -21 -7 -21 15 -45 41 -44 20 1 20 2 1 6 -11 3 -24 9 -29
14 -15 13 14 39 44 39 24 0 27 -3 22 -25 -2 -15 0 -25 7 -25 15 0 14 83 -1 98
-14 14 -64 16 -73 3z"/>
<path d="M285 300 c0 -27 3 -50 8 -50 4 0 7 23 7 50 0 28 -3 50 -7 50 -5 0 -8
-22 -8 -50z"/>
<path d="M340 298 c0 -28 2 -49 4 -47 8 9 13 99 5 99 -5 0 -9 -23 -9 -52z"/>
<path d="M520 325 l-24 -25 29 -30 c16 -16 30 -28 33 -26 2 3 -5 15 -17 27
-25 27 -26 37 -4 61 25 28 10 21 -17 -7z"/>
<path d="M889 343 c-5 -36 -4 -93 2 -93 4 0 9 23 11 50 1 28 0 50 -4 50 -5 0
-8 -3 -9 -7z"/>
<path d="M210 205 c-9 -11 -9 -15 -1 -15 6 0 12 -15 12 -32 l2 -33 4 30 c3 16
8 32 13 35 4 3 2 10 -5 17 -10 10 -16 9 -25 -2z"/>
<path d="M410 211 c0 -5 -12 -11 -27 -13 -22 -2 -29 -9 -31 -29 -4 -31 17 -50
46 -42 18 4 22 12 22 49 0 24 -2 44 -5 44 -3 0 -5 -4 -5 -9z m-4 -36 c8 -20
-13 -45 -32 -38 -14 5 -19 34 -7 46 11 12 33 7 39 -8z"/>
<path d="M135 190 c-9 -14 3 -30 23 -29 11 0 12 3 5 6 -21 8 -15 26 7 20 11
-3 20 -1 20 4 0 12 -47 11 -55 -1z"/>
<path d="M271 169 c-1 -26 4 -39 15 -43 13 -5 14 -3 6 6 -5 7 -12 27 -15 43
-4 28 -4 28 -6 -6z"/>
<path d="M318 165 c-2 -19 0 -35 4 -35 4 0 8 16 8 35 0 19 -2 35 -4 35 -2 0
-6 -16 -8 -35z"/>
<path d="M443 165 c0 -22 2 -30 4 -17 2 12 2 30 0 40 -3 9 -5 -1 -4 -23z"/>
<path d="M476 185 c-11 -29 -7 -44 15 -55 27 -15 51 5 47 39 -2 20 -9 27 -29
29 -17 2 -29 -3 -33 -13z m52 -21 c2 -12 -4 -24 -12 -27 -19 -7 -40 18 -32 39
8 22 40 13 44 -12z"/>
<path d="M173 140 c-11 -16 -10 -18 2 -14 8 4 15 12 15 20 0 19 -3 18 -17 -6z"/>
</g>
</svg>
