<?xml version="1.0" standalone="no"?>
<!DOCTYPE svg PUBLIC "-//W3C//DTD SVG 20010904//EN"
 "http://www.w3.org/TR/2001/REC-SVG-20010904/DTD/svg10.dtd">
<svg version="1.0" xmlns="http://www.w3.org/2000/svg"
 width="800.000000pt" height="800.000000pt" viewBox="0 0 800.000000 800.000000"
 preserveAspectRatio="xMidYMid meet">

<g transform="translate(0.000000,800.000000) scale(0.100000,-0.100000)"
fill="#000000" stroke="none">
<path d="M821 7185 c-177 -39 -348 -173 -429 -335 -77 -157 -72 -17 -72 -2050
0 -2033 -5 -1893 72 -2050 59 -117 161 -220 278 -277 47 -23 105 -47 130 -53
l45 -11 38 -217 c21 -119 51 -289 67 -377 16 -88 48 -266 71 -395 44 -250 66
-326 120 -416 53 -88 163 -186 261 -232 186 -89 246 -88 773 7 392 70 546 98
1460 260 248 44 716 127 1040 185 671 120 1486 264 2065 367 466 82 494 89
585 134 158 77 273 213 326 385 41 130 35 220 -49 680 -39 217 -132 739 -207
1160 -75 421 -184 1031 -243 1355 l-106 590 -7 390 c-4 254 -10 406 -18 435
-45 169 -177 331 -332 408 -157 78 96 72 -3014 71 -2340 0 -2800 -3 -2854 -14z
m5714 -335 c64 -31 124 -91 155 -155 25 -49 25 -55 28 -332 l3 -283 -3040 0
-3041 0 0 265 c0 218 3 273 16 312 34 99 106 172 204 206 41 15 317 16 2835
14 l2790 -2 50 -25z m183 -2732 l-3 -1163 -25 -50 c-31 -64 -91 -124 -155
-155 l-50 -25 -2805 0 -2805 0 -50 25 c-64 31 -124 91 -155 155 l-25 50 -3
1163 -2 1162 3040 0 3040 0 -2 -1162z m452 -723 c55 -313 121 -685 146 -825
50 -278 51 -321 14 -409 -29 -65 -112 -144 -177 -165 -27 -9 -745 -140 -1598
-291 -852 -152 -1892 -336 -2310 -411 -418 -74 -938 -167 -1155 -205 -297 -53
-407 -69 -442 -65 -136 18 -240 111 -273 244 -8 31 -55 289 -105 572 -50 283
-94 525 -97 538 l-5 22 2648 0 c2291 0 2658 2 2718 15 181 38 352 171 434 335
71 144 72 158 73 793 1 493 3 553 14 492 7 -38 59 -326 115 -640z"/>
<path d="M1440 4640 l0 -160 1280 0 1280 0 0 160 0 160 -1280 0 -1280 0 0
-160z"/>
<path d="M6600 260 l0 -170 700 0 700 0 0 170 0 170 -700 0 -700 0 0 -170z
m1278 88 c3 -24 0 -28 -23 -28 -27 0 -41 20 -31 46 10 27 51 13 54 -18z
m-1156 -72 c-4 -22 7 -20 35 6 27 25 44 17 20 -10 -22 -24 -21 -35 3 -57 11
-10 20 -22 20 -27 0 -16 -29 -8 -44 13 -15 22 -36 18 -36 -7 0 -8 -4 -14 -10
-14 -6 0 -10 27 -10 61 0 44 3 59 13 56 6 -2 11 -11 9 -21z m125 -13 l16 -38
11 32 c13 38 21 47 35 39 8 -5 -7 -51 -46 -143 -3 -7 -17 -13 -31 -13 -24 0
-24 1 -9 18 21 23 21 40 2 85 -18 43 -19 57 -4 57 5 0 17 -17 26 -37z m181
-25 c2 -47 0 -58 -13 -58 -11 0 -15 11 -15 46 0 41 -2 45 -22 42 -20 -3 -23
-9 -23 -46 0 -27 -4 -42 -12 -42 -9 0 -13 19 -13 61 l0 60 48 -3 47 -3 3 -57z
m43 20 l0 -43 22 43 c30 61 51 53 55 -21 2 -46 0 -57 -13 -57 -11 0 -15 11
-15 38 l-1 37 -17 -35 c-10 -20 -26 -36 -37 -38 -18 -2 -20 3 -18 40 1 24 2
51 2 61 2 37 21 15 22 -25z m197 -20 c2 -47 0 -58 -13 -58 -11 0 -15 11 -15
45 0 38 -3 45 -20 45 -17 0 -20 -7 -20 -45 0 -33 -4 -45 -15 -45 -12 0 -15 13
-15 61 l0 60 48 -3 47 -3 3 -57z m115 43 c21 -17 22 -74 2 -91 -8 -7 -26 -10
-40 -8 -21 4 -25 1 -25 -18 0 -15 -6 -24 -15 -24 -12 0 -15 15 -15 73 0 41 2
76 4 78 10 10 74 3 89 -10z m118 10 c4 0 12 -14 19 -31 10 -25 10 -34 -4 -55
-31 -47 -98 -27 -98 30 0 45 32 67 83 56z m139 -41 c0 -27 5 -50 10 -50 6 0
10 -13 10 -30 0 -34 -19 -41 -27 -9 -5 16 -12 19 -42 17 -23 -2 -36 -8 -36
-17 0 -8 -6 -16 -12 -18 -15 -5 -18 52 -4 61 5 3 12 26 15 51 7 45 8 45 47 45
l39 0 0 -50z m122 38 c9 -7 18 -34 21 -59 l4 -47 -45 0 c-43 -1 -72 10 -72 29
0 16 32 39 56 39 13 0 24 5 24 11 0 7 -12 9 -35 5 -38 -7 -47 6 -17 23 23 14
45 13 64 -1z m68 -30 l0 -43 20 43 c29 64 50 56 50 -18 0 -33 -4 -60 -10 -60
-10 0 -13 14 -13 53 0 25 -5 21 -21 -18 -10 -24 -22 -35 -35 -35 -19 0 -21 6
-21 53 0 30 3 57 7 60 15 16 23 4 23 -35z"/>
<path d="M7327 263 c-20 -19 0 -63 28 -63 11 0 24 40 19 54 -6 16 -35 22 -47
9z"/>
<path d="M7445 249 c-10 -30 18 -58 40 -39 22 18 15 54 -12 58 -15 2 -23 -3
-28 -19z"/>
<path d="M7580 251 c0 -11 -3 -26 -6 -34 -3 -10 2 -14 18 -13 18 1 24 8 26 34
3 27 0 32 -17 32 -14 0 -21 -6 -21 -19z"/>
<path d="M7705 220 c-8 -12 20 -24 35 -15 5 3 10 10 10 16 0 12 -37 12 -45 -1z"/>
</g>
</svg>
